<svg width="820" height="911" viewBox="0 0 820 911" fill="none" xmlns="http://www.w3.org/2000/svg">
<path d="M576.733 659.417V483.29H629.35V717.873H154.433V483.29H207.05V659.417H576.733Z" fill="#BCBBBB"/>
<path d="M265.133 466.589L523.433 526.563L534.367 468.866L276.067 408.892L265.133 466.589V466.589ZM299.3 329.939L538.467 453.683L560.333 400.541L321.167 276.038L299.3 329.939ZM365.583 199.362L568.533 386.876L602.017 342.085L399.067 154.571L365.583 199.362V199.362ZM496.783 60.4346L454.417 95.3563L611.583 330.698L653.95 295.776L496.783 60.4346V60.4346ZM259.667 600.202H523.433V541.746H259.667V600.202Z" fill="#F48023"/>
<path d="M43.456 821.64C40.3413 821.64 37.6107 821.064 35.264 819.912C32.9173 818.717 31.0827 817.075 29.76 814.984C28.48 812.851 27.84 810.376 27.84 807.56V787.72C27.84 784.861 28.48 782.387 29.76 780.296C31.0827 778.205 32.9173 776.584 35.264 775.432C37.6107 774.237 40.3413 773.64 43.456 773.64C46.6133 773.64 49.344 774.237 51.648 775.432C53.9947 776.584 55.808 778.205 57.088 780.296C58.4107 782.387 59.072 784.861 59.072 787.72H49.472C49.472 785.843 48.9387 784.413 47.872 783.432C46.848 782.451 45.376 781.96 43.456 781.96C41.536 781.96 40.0427 782.451 38.976 783.432C37.952 784.413 37.44 785.843 37.44 787.72V807.56C37.44 809.395 37.952 810.824 38.976 811.848C40.0427 812.829 41.536 813.32 43.456 813.32C45.376 813.32 46.848 812.829 47.872 811.848C48.9387 810.824 49.472 809.395 49.472 807.56H59.072C59.072 810.376 58.4107 812.851 57.088 814.984C55.808 817.075 53.9947 818.717 51.648 819.912C49.344 821.064 46.6133 821.64 43.456 821.64ZM68.455 821V774.28H78.055V812.04H96.935V821H68.455ZM119.95 821.64C116.835 821.64 114.126 821.064 111.822 819.912C109.518 818.717 107.726 817.075 106.446 814.984C105.209 812.851 104.59 810.376 104.59 807.56V787.72C104.59 784.904 105.209 782.451 106.446 780.36C107.726 778.227 109.518 776.584 111.822 775.432C114.126 774.237 116.835 773.64 119.95 773.64C123.107 773.64 125.817 774.237 128.078 775.432C130.382 776.584 132.153 778.227 133.39 780.36C134.67 782.451 135.31 784.904 135.31 787.72V807.56C135.31 810.376 134.67 812.851 133.39 814.984C132.153 817.075 130.382 818.717 128.078 819.912C125.817 821.064 123.107 821.64 119.95 821.64ZM119.95 813.32C121.87 813.32 123.299 812.829 124.238 811.848C125.219 810.824 125.71 809.395 125.71 807.56V787.72C125.71 785.843 125.241 784.413 124.302 783.432C123.363 782.451 121.913 781.96 119.95 781.96C117.987 781.96 116.537 782.451 115.598 783.432C114.659 784.413 114.19 785.843 114.19 787.72V807.56C114.19 809.395 114.659 810.824 115.598 811.848C116.579 812.829 118.03 813.32 119.95 813.32ZM142.965 821V774.28H154.165L166.261 810.44C166.133 808.861 165.984 807.048 165.813 805C165.642 802.909 165.493 800.84 165.365 798.792C165.28 796.701 165.237 794.931 165.237 793.48V774.28H173.685V821H162.485L150.517 784.84C150.645 786.205 150.773 787.827 150.901 789.704C151.029 791.581 151.136 793.48 151.221 795.4C151.349 797.32 151.413 799.027 151.413 800.52V821H142.965ZM182.62 821V774.28H211.42V782.472H192.028V792.968H209.18V801.16H192.028V812.808H211.42V821H182.62ZM503.7 821.64C500.585 821.64 497.876 821.064 495.572 819.912C493.268 818.717 491.476 817.075 490.196 814.984C488.959 812.851 488.34 810.376 488.34 807.56V787.72C488.34 784.904 488.959 782.451 490.196 780.36C491.476 778.227 493.268 776.584 495.572 775.432C497.876 774.237 500.585 773.64 503.7 773.64C506.857 773.64 509.567 774.237 511.828 775.432C514.132 776.584 515.903 778.227 517.14 780.36C518.42 782.451 519.06 784.904 519.06 787.72V807.56C519.06 810.376 518.42 812.851 517.14 814.984C515.903 817.075 514.132 818.717 511.828 819.912C509.567 821.064 506.857 821.64 503.7 821.64ZM503.7 813.32C505.62 813.32 507.049 812.829 507.988 811.848C508.969 810.824 509.46 809.395 509.46 807.56V787.72C509.46 785.843 508.991 784.413 508.052 783.432C507.113 782.451 505.663 781.96 503.7 781.96C501.737 781.96 500.287 782.451 499.348 783.432C498.409 784.413 497.94 785.843 497.94 787.72V807.56C497.94 809.395 498.409 810.824 499.348 811.848C500.329 812.829 501.78 813.32 503.7 813.32ZM536.059 821L524.475 774.28H534.395L540.859 803.784C541.072 804.808 541.328 806.109 541.627 807.688C541.968 809.267 542.224 810.611 542.395 811.72C542.566 810.611 542.779 809.267 543.035 807.688C543.291 806.109 543.526 804.787 543.739 803.72L550.011 774.28H559.675L548.219 821H536.059ZM566.37 821V774.28H595.17V782.472H575.778V792.968H592.93V801.16H575.778V812.808H595.17V821H566.37ZM603.785 821V774.28H618.825C622.153 774.28 625.033 774.856 627.465 776.008C629.897 777.16 631.774 778.803 633.097 780.936C634.462 783.069 635.145 785.587 635.145 788.488C635.145 791.517 634.398 794.227 632.905 796.616C631.454 799.005 629.47 800.733 626.953 801.8L635.785 821H625.353L617.801 803.336H613.321V821H603.785ZM613.321 795.016H618.825C620.958 795.016 622.601 794.483 623.753 793.416C624.948 792.349 625.545 790.856 625.545 788.936C625.545 786.931 624.948 785.373 623.753 784.264C622.601 783.155 620.958 782.6 618.825 782.6H613.321V795.016ZM642.48 821V774.28H672.56V783.24H651.952V793.608H670.896V802.568H652.08V821H642.48ZM682.455 821V774.28H692.055V812.04H710.935V821H682.455ZM733.95 821.64C730.835 821.64 728.126 821.064 725.822 819.912C723.518 818.717 721.726 817.075 720.446 814.984C719.209 812.851 718.59 810.376 718.59 807.56V787.72C718.59 784.904 719.209 782.451 720.446 780.36C721.726 778.227 723.518 776.584 725.822 775.432C728.126 774.237 730.835 773.64 733.95 773.64C737.107 773.64 739.817 774.237 742.078 775.432C744.382 776.584 746.153 778.227 747.39 780.36C748.67 782.451 749.31 784.904 749.31 787.72V807.56C749.31 810.376 748.67 812.851 747.39 814.984C746.153 817.075 744.382 818.717 742.078 819.912C739.817 821.064 737.107 821.64 733.95 821.64ZM733.95 813.32C735.87 813.32 737.299 812.829 738.238 811.848C739.219 810.824 739.71 809.395 739.71 807.56V787.72C739.71 785.843 739.241 784.413 738.302 783.432C737.363 782.451 735.913 781.96 733.95 781.96C731.987 781.96 730.537 782.451 729.598 783.432C728.659 784.413 728.19 785.843 728.19 787.72V807.56C728.19 809.395 728.659 810.824 729.598 811.848C730.579 812.829 732.03 813.32 733.95 813.32ZM758.117 821L753.765 774.28H761.637L764.005 805.512C764.048 806.109 764.09 806.963 764.133 808.072C764.176 809.139 764.218 810.269 764.261 811.464C764.346 812.616 764.389 813.661 764.389 814.6C764.474 813.661 764.56 812.616 764.645 811.464C764.773 810.269 764.901 809.139 765.029 808.072C765.157 806.963 765.242 806.109 765.285 805.512L768.741 774.28H776.037L779.365 805.512C779.45 806.109 779.536 806.963 779.621 808.072C779.749 809.139 779.877 810.269 780.005 811.464C780.176 812.616 780.304 813.661 780.389 814.6C780.432 813.661 780.474 812.616 780.517 811.464C780.56 810.269 780.602 809.139 780.645 808.072C780.688 806.963 780.73 806.109 780.773 805.512L782.949 774.28H790.885L786.213 821H776.229L773.093 789.96C773.008 789.235 772.922 788.296 772.837 787.144C772.752 785.949 772.666 784.712 772.581 783.432C772.496 782.152 772.41 781.021 772.325 780.04C772.282 781.021 772.218 782.152 772.133 783.432C772.048 784.712 771.962 785.949 771.877 787.144C771.792 788.296 771.706 789.235 771.621 789.96L768.165 821H758.117Z" fill="black"/>
<path d="M273.45 821.64C270.165 821.64 267.306 821.085 264.874 819.976C262.442 818.867 260.565 817.309 259.242 815.304C257.919 813.299 257.258 810.931 257.258 808.2H266.858C266.858 809.779 267.455 811.037 268.65 811.976C269.887 812.872 271.551 813.32 273.642 813.32C275.647 813.32 277.205 812.872 278.314 811.976C279.466 811.08 280.042 809.843 280.042 808.264C280.042 806.899 279.615 805.725 278.762 804.744C277.909 803.763 276.714 803.101 275.178 802.76L270.442 801.672C266.474 800.733 263.381 799.005 261.162 796.488C258.986 793.928 257.898 790.813 257.898 787.144C257.898 784.413 258.517 782.045 259.754 780.04C261.034 777.992 262.826 776.413 265.13 775.304C267.434 774.195 270.165 773.64 273.322 773.64C278.101 773.64 281.877 774.835 284.65 777.224C287.466 779.571 288.874 782.749 288.874 786.76H279.274C279.274 785.267 278.741 784.093 277.674 783.24C276.65 782.387 275.157 781.96 273.194 781.96C271.359 781.96 269.951 782.387 268.97 783.24C267.989 784.051 267.498 785.224 267.498 786.76C267.498 788.125 267.882 789.299 268.65 790.28C269.461 791.219 270.591 791.859 272.042 792.2L277.034 793.352C281.173 794.291 284.309 795.997 286.442 798.472C288.575 800.904 289.642 804.019 289.642 807.816C289.642 810.547 288.959 812.957 287.594 815.048C286.271 817.139 284.394 818.76 281.962 819.912C279.573 821.064 276.735 821.64 273.45 821.64ZM307.025 821V783.24H295.185V774.28H328.465V783.24H316.625V821H307.025ZM332.6 821L344.056 774.28H356.216L367.8 821H358.008L355.768 810.44H344.632L342.392 821H332.6ZM346.232 802.76H354.104L351.864 791.496C351.565 789.875 351.245 788.275 350.904 786.696C350.605 785.075 350.371 783.816 350.2 782.92C350.029 783.816 349.795 785.053 349.496 786.632C349.24 788.211 348.941 789.811 348.6 791.432L346.232 802.76ZM388.831 821.64C385.716 821.64 382.986 821.064 380.639 819.912C378.292 818.717 376.458 817.075 375.135 814.984C373.855 812.851 373.215 810.376 373.215 807.56V787.72C373.215 784.861 373.855 782.387 375.135 780.296C376.458 778.205 378.292 776.584 380.639 775.432C382.986 774.237 385.716 773.64 388.831 773.64C391.988 773.64 394.719 774.237 397.023 775.432C399.37 776.584 401.183 778.205 402.463 780.296C403.786 782.387 404.447 784.861 404.447 787.72H394.847C394.847 785.843 394.314 784.413 393.247 783.432C392.223 782.451 390.751 781.96 388.831 781.96C386.911 781.96 385.418 782.451 384.351 783.432C383.327 784.413 382.815 785.843 382.815 787.72V807.56C382.815 809.395 383.327 810.824 384.351 811.848C385.418 812.829 386.911 813.32 388.831 813.32C390.751 813.32 392.223 812.829 393.247 811.848C394.314 810.824 394.847 809.395 394.847 807.56H404.447C404.447 810.376 403.786 812.851 402.463 814.984C401.183 817.075 399.37 818.717 397.023 819.912C394.719 821.064 391.988 821.64 388.831 821.64ZM411.91 821V774.28H421.51V792.392H426.054L433.734 774.28H444.166L434.566 796.616L444.55 821H433.99L426.054 801.224H421.51V821H411.91Z" fill="#F48023"/>
</svg>
